<svg width="117" height="71" viewBox="0 0 117 71" fill="none" xmlns="http://www.w3.org/2000/svg">
<path d="M115.813 67.0746C115.813 66.8463 113.055 62.833 107.539 55.0349C107.539 54.666 107.994 54.4816 108.878 54.4816V54.2182C108.714 53.4472 108.276 52.7589 107.643 52.2762C107.01 51.7936 106.223 51.5481 105.424 51.5837L103.04 48.7384H96.3995C96.0782 48.7384 95.9175 48.554 95.864 48.2115V47.9217C96.9083 47.9217 99.0238 47.9217 102.237 47.7109V47.4211L101.969 46.8942C102.449 46.8313 102.907 46.66 103.308 46.3937C102.44 44.9149 101.455 43.5055 100.363 42.1785V41.915L104.379 40.3607C108.903 37.5757 112.287 33.3137 113.939 28.321C113.939 27.9785 113.403 27.7941 112.359 27.7941C112.895 24.2375 113.162 22.1299 113.162 21.4976C112.94 18.6468 112.3 15.8427 111.261 13.1725C109.985 9.53306 107.444 6.45399 104.085 4.47866C104.099 4.10242 104.22 3.73754 104.433 3.42486C103.648 2.60115 102.616 2.04705 101.487 1.84416C99.1487 0.614719 94.6054 0 87.8575 0H69.2737C68.0955 0 66.3282 0 63.9182 0.237106H63.2755C63.2755 0.237106 63.1684 0 62.8739 0C62.6015 0.14407 62.2993 0.225159 61.9902 0.237106H54.9477L54.4121 0.526902L48.8424 14.6215C48.8424 14.964 49.0298 15.1221 49.3779 15.1221H50.69V15.9388C50.3419 16.0587 49.9834 16.1468 49.6189 16.2022L48.28 15.9388L39.8183 36.3035L39.256 36.0401H39.0417C38.9714 36.0365 38.901 36.0467 38.8347 36.0699C38.7683 36.0932 38.7073 36.1291 38.655 36.1756C38.6028 36.2221 38.5604 36.2782 38.5303 36.3409C38.5001 36.4035 38.4828 36.4714 38.4794 36.5406V36.8831C38.4709 36.9578 38.4796 37.0334 38.5048 37.1044C38.5301 37.1753 38.5712 37.2397 38.6253 37.2929C38.6793 37.346 38.7448 37.3865 38.8169 37.4114C38.889 37.4362 38.9658 37.4447 39.0417 37.4364C38.9859 38.3368 38.7965 39.2244 38.4794 40.0709V41.1247L38.7472 42.9688H37.1405L35.8016 43.2059C30.8746 31.4033 27.6969 23.3593 26.2688 19.0738H27.3399V17.7566L27.0721 17.256C25.4655 17.0189 24.6621 16.7555 24.6621 16.4393C24.6621 16.1232 24.8496 15.9915 25.2245 15.9388H26.7776V15.1221H24.3944L19.3869 2.34471C19.3869 0.790352 18.2355 0 16.0665 0C15.7404 0.181979 15.3701 0.273062 14.9954 0.263451H6.3462C5.54519 0.248899 4.74731 0.160698 3.96299 0C3.38187 0.247901 2.74407 0.338843 2.11533 0.263451H0.562222C0.491872 0.259903 0.421502 0.270045 0.355142 0.293296C0.288781 0.316546 0.227735 0.352448 0.1755 0.398945C0.123264 0.445443 0.080865 0.501622 0.0507313 0.564265C0.0205976 0.626908 0.00332103 0.694785 -0.000108756 0.764007V6.79703C-0.0262862 7.18399 0.067056 7.56969 0.267668 7.90352C0.0827007 8.22431 -0.00987738 8.58864 -0.000108756 8.95733V14.6215L0.267668 15.1221C0.638805 15.1281 1.00604 15.0468 1.33878 14.885C1.66309 15.0437 2.02089 15.1249 2.3831 15.1221V15.807C2.39172 15.8783 2.38379 15.9505 2.35992 16.0183C2.33605 16.0861 2.29686 16.1477 2.2453 16.1984C2.19375 16.2491 2.13116 16.2877 2.06227 16.3111C1.99337 16.3346 1.91995 16.3424 1.84755 16.334H-0.000108756V16.5711C-0.00862651 16.6457 6.09788e-05 16.7214 0.025309 16.7923C0.0505571 16.8632 0.0917175 16.9277 0.145736 16.9808C0.199754 17.034 0.265244 17.0745 0.337344 17.0993C0.409445 17.1241 0.486305 17.1327 0.562222 17.1243H1.84755V19.2056H0.562222C0.43885 19.1887 0.31346 19.2169 0.209817 19.2848C0.106174 19.3528 0.0314801 19.4559 -0.000108756 19.5744V42.2839C-0.00862651 42.3585 6.09788e-05 42.4342 0.025309 42.5051C0.0505571 42.576 0.0917175 42.6405 0.145736 42.6936C0.199754 42.7468 0.265244 42.7873 0.337344 42.8121C0.409445 42.8369 0.486305 42.8455 0.562222 42.8371H3.45421L3.72199 44.1017V59.2764L3.45421 60.5937H0.562222C0.49105 60.5863 0.419089 60.5937 0.35104 60.6155C0.282992 60.6373 0.220386 60.673 0.167315 60.7203C0.114243 60.7675 0.0718993 60.8253 0.0430496 60.8897C0.0141999 60.9541 -0.000506487 61.0238 -0.000108756 61.0942V61.3577L1.60655 62.4115L-0.000108756 63.439V70.236L0.267668 70.7892C3.53454 70.921 5.91776 71 7.41731 71H16.7092C17.084 71 17.2715 70.8419 17.2715 70.4994V62.9384H18.5836C18.9317 62.9384 19.0924 62.754 19.0924 62.4115C19.0924 62.069 18.9317 61.9636 18.5836 61.9109H17.2715V61.0942C17.2715 60.8045 17.4322 60.6464 17.7803 60.5937H20.1635C20.5384 60.5937 20.699 60.4093 20.699 60.0404V43.3377L20.9936 42.8371L24.3944 43.0742V46.4727C25.7986 51.0926 27.4887 55.6236 29.4553 60.0404C29.4553 60.4093 29.2947 60.5937 28.9466 60.5937H26.5633C27.3184 64.11 28.4773 67.5305 30.0177 70.7892C33.5255 70.921 36.2033 71 38.051 71H42.8442L46.7269 60.5937H49.8867C50.1545 60.5937 50.8507 59.1974 52.0021 56.4312C52.5109 54.9031 53.4749 52.3213 54.8941 48.7384H56.233L57.5719 49.0019V60.5937H56.0456L55.4832 60.8571L55.7778 62.1217V70.7892C59.2857 70.921 61.9634 71 63.8111 71H76.5573L77.066 70.7629C77.0437 70.4772 76.9617 70.1992 76.8251 69.9462C76.9894 69.6282 77.0721 69.2754 77.066 68.9187V65.8627L76.8251 65.3358C76.9857 65.3358 77.066 64.8879 77.066 64.0185H79.9848C80.3597 64.0185 80.5471 63.8341 80.5471 63.518C80.5471 63.2019 80.3597 63.0174 79.9848 62.9647H76.9589V50.8197L76.7179 50.2928C76.7506 50.2971 76.7839 50.294 76.8151 50.2836C76.8464 50.2732 76.8748 50.2559 76.8981 50.2329C76.9214 50.21 76.9391 50.182 76.9496 50.1513C76.9602 50.1205 76.9634 50.0878 76.9589 50.0557V48.7384H81.7254C82.5019 48.7384 83.573 49.6078 84.9387 51.3729C85.7026 51.3633 86.4447 51.624 87.0296 52.1076C87.6145 52.5912 88.0033 53.2654 88.1252 54.0074V54.5343H87.0809C89.2532 58.956 91.8347 63.1715 94.7929 67.1273V67.3644C94.3309 67.3369 93.8697 67.4277 93.454 67.6278C94.0888 68.7256 94.7954 69.7817 95.5694 70.7892C98.8631 70.9473 101.273 71.0263 102.746 71.0263H116.135L116.643 70.7892C116.181 69.6553 115.559 68.5911 114.796 67.6278C114.769 67.3644 115.144 67.2063 115.813 67.0746ZM20.699 42.8371H17.2715V29.5328C18.8182 32.5015 19.9702 35.6537 20.699 38.9117V42.8371ZM40.8626 36.5406C40.8626 36.2508 41.0501 36.0928 41.425 36.0401H41.666V36.8831C41.666 37.2519 41.4785 37.4364 41.1572 37.4364H40.8626V36.5406ZM41.9337 48.8174C40.6667 47.0945 39.7568 45.143 39.256 43.0742C39.4434 43.0742 39.5505 43.0742 39.5505 42.8371L42.7103 43.0742C42.7831 43.5526 42.9764 44.0054 43.2726 44.3915L41.9337 48.8174ZM55.3226 47.79L57.1167 43.3377C57.1167 43.0479 56.956 42.8898 56.5811 42.8371H53.9034C54.3991 40.9388 55.1087 39.1008 56.0188 37.3573C56.0515 37.353 56.0847 37.3561 56.116 37.3665C56.1473 37.3769 56.1757 37.3942 56.199 37.4172C56.2223 37.4401 56.2399 37.468 56.2505 37.4988C56.261 37.5295 56.2642 37.5623 56.2598 37.5944C57.4916 37.3573 58.1342 37.0148 58.1342 36.5406C58.1342 36.0664 57.5987 36.0137 56.5276 35.7766C56.9687 34.0199 57.6822 32.3405 58.643 30.7974H58.9108V35.5132C58.9177 35.5964 58.9429 35.6771 58.9845 35.7498C59.0261 35.8226 59.0831 35.8856 59.1518 35.9347V37.8315C58.3792 39.2417 57.777 40.7359 57.3577 42.2839C57.3577 42.6 57.9468 42.8108 59.1518 42.9688V46.3937L58.9108 46.8942C58.6374 46.8553 58.3739 46.7659 58.1342 46.6308C57.7593 46.6308 57.5987 46.8942 57.5987 47.4211C57.5987 47.948 56.7686 47.6846 55.269 47.79H55.3226ZM81.7789 47.9217L81.2701 47.7109H81.0024C80.1187 47.7109 78.7798 47.7109 77.0125 47.9217C76.9818 47.6544 76.9001 47.3951 76.7715 47.1577C77.1196 47.1577 77.2803 46.9733 77.2803 46.6308L77.8158 46.8942H78.3246C78.512 44.813 78.8066 43.7592 79.1547 43.7592H81.5647C81.7254 43.7592 82.1806 44.5495 82.8768 46.1039L81.7789 47.9217ZM94.0699 28.0575C93.1712 29.0392 92.0439 29.7918 90.7846 30.2507C89.5254 30.7095 88.1717 30.861 86.8399 30.692H78.5656V28.0575H79.8777L80.9488 26.7403H83.332V26.3451H76.9589C76.933 26.0684 76.8511 25.7997 76.7179 25.5547H76.9589C76.9589 25.1596 76.2359 24.8961 74.8435 24.7907V23.21C76.2359 23.21 76.9589 22.4197 76.9589 20.8653V20.4438L76.7179 19.9432C76.8786 19.9432 76.9589 19.9432 76.9589 19.6798V18.0991C76.9589 17.2297 76.9589 15.9124 76.7179 14.1737C76.7506 14.178 76.7839 14.1749 76.8151 14.1645C76.8464 14.1541 76.8748 14.1368 76.8981 14.1138C76.9214 14.0909 76.9391 14.0629 76.9496 14.0322C76.9602 14.0014 76.9634 13.9687 76.9589 13.9365C77.6778 13.9662 78.3936 14.0454 79.1012 14.1737L81.7789 13.9365L82.8768 14.1737C82.8672 14.1249 82.8753 14.0745 82.8998 14.0311C82.9243 13.9877 82.9636 13.9542 83.0107 13.9365L83.573 14.1737L84.1086 13.9365C85.9276 13.8386 87.7483 14.0984 89.4641 14.7006C92.6507 16.8872 94.2573 18.8894 94.2573 20.7336V22.8148C94.2124 23.8864 94.0325 24.9483 93.7218 25.9762L94.2305 26.2134H96.6138C96.6405 27.4516 95.7569 28.0575 94.0163 28.0575H94.0699Z" fill="white"/>
</svg>
